<?xml version="1.0" standalone="no"?>
<!DOCTYPE svg PUBLIC "-//W3C//DTD SVG 20010904//EN"
 "http://www.w3.org/TR/2001/REC-SVG-20010904/DTD/svg10.dtd">
<svg version="1.0" xmlns="http://www.w3.org/2000/svg"
 width="1440.000000pt" height="281.000000pt" viewBox="0 0 1440.000000 281.000000"
 preserveAspectRatio="xMidYMid meet">

<g transform="translate(0.000000,281.000000) scale(0.100000,-0.100000)"
fill="#000000" stroke="none">
<path d="M0 1405 l0 -1405 7200 0 7200 0 0 1405 0 1405 -7200 0 -7200 0 0
-1405z m7707 1339 c3 -8 12 -13 19 -10 29 11 12 -4 -25 -24 -31 -15 -40 -17
-44 -6 -4 10 0 12 14 9 12 -3 21 1 25 11 9 24 -1 29 -28 16 -22 -11 -22 -10
-4 4 25 20 35 20 43 0z m29 -66 c4 -6 3 -8 -4 -5 -18 12 -44 -4 -39 -24 3 -11
1 -17 -4 -13 -13 7 -11 28 3 42 15 15 35 15 44 0z m4 -24 c0 -8 -19 -13 -24
-6 -3 5 1 9 9 9 8 0 15 -2 15 -3z m70 -58 c8 -11 9 -20 1 -33 -9 -16 -10 -15
-8 7 3 32 -22 37 -54 10 -24 -20 -24 -20 -5 -35 11 -8 15 -15 9 -15 -17 0 -34
26 -28 42 6 15 40 36 61 37 6 1 17 -6 24 -13z m10 -94 c0 -25 -46 -47 -54 -26
-3 8 -2 13 3 9 14 -8 41 5 41 21 0 8 2 14 5 14 3 0 5 -8 5 -18z m25 -52 c3 -6
-1 -7 -9 -4 -18 7 -21 14 -7 14 6 0 13 -4 16 -10z m5 -28 c0 -5 -12 -14 -27
-21 l-28 -12 25 21 c29 22 30 23 30 12z m36 -61 c-20 -21 -24 -30 -14 -34 7
-3 3 -6 -9 -6 -32 -1 -29 13 10 43 42 34 47 33 13 -3z m37 -28 c-7 -2 -19 -2
-25 0 -7 3 -2 5 12 5 14 0 19 -2 13 -5z m2 -57 c0 -11 -6 -20 -13 -22 -7 -1
-8 0 -2 3 16 8 12 33 -6 33 -8 0 -12 -4 -9 -10 3 -6 -1 -7 -10 -3 -13 5 -14 7
-3 14 20 14 43 6 43 -15z m29 -52 c9 -24 7 -31 -5 -11 -8 13 -14 15 -29 7 -29
-16 -38 -11 -10 5 32 18 37 18 44 -1z m2 -49 c-11 -8 -25 -15 -30 -15 -6 1 0
7 14 15 32 19 40 18 16 0z m-1056 -338 c-14 -8 -27 -12 -30 -10 -7 6 23 23 40
23 8 0 4 -6 -10 -13z m60 -17 c0 -10 -3 -21 -7 -23 -5 -3 -8 8 -8 23 0 15 3
26 8 23 4 -2 7 -13 7 -23z m-65 -38 c-3 -3 -11 0 -18 7 -9 10 -8 11 6 5 10 -3
15 -9 12 -12z m22 -28 c-3 -3 -12 -4 -19 -1 -8 3 -5 6 6 6 11 1 17 -2 13 -5z
m23 -34 c-18 -12 -50 -13 -50 -2 0 4 15 8 33 9 23 2 28 0 17 -7z m30 -30 c0
-5 -4 -10 -10 -10 -5 0 -10 5 -10 10 0 6 5 10 10 10 6 0 10 -4 10 -10z m-33
-6 c-3 -3 -12 -4 -19 -1 -8 3 -5 6 6 6 11 1 17 -2 13 -5z m28 -54 c-11 -5 -27
-9 -35 -9 -9 0 -8 4 5 9 11 5 27 9 35 9 9 0 8 -4 -5 -9z m13 -57 c-20 -3 -28
-10 -29 -26 0 -12 -3 -16 -6 -9 -9 24 6 42 34 41 l28 -2 -27 -4z m22 -29 c0
-8 -19 -13 -24 -6 -3 5 1 9 9 9 8 0 15 -2 15 -3z m20 -34 c0 -5 -12 -10 -27
-9 -25 0 -26 1 -8 9 27 12 35 12 35 0z m0 -89 c-14 -4 -25 -13 -25 -21 0 -20
21 -23 39 -5 13 14 16 14 16 2 0 -20 -50 -32 -61 -15 -19 30 -6 47 36 46 15 0
14 -2 -5 -7z m20 -71 c0 -5 -7 -10 -16 -10 -11 0 -15 -6 -11 -20 3 -11 1 -18
-4 -14 -15 9 -10 32 9 43 22 13 22 13 22 1z m15 -38 c-17 -15 -18 -15 -6 0 7
9 9 23 5 30 -6 10 -4 11 7 0 11 -10 10 -15 -6 -30z m-6365 -13 c0 -5 -11 -4
-24 1 -13 5 -27 6 -32 2 -4 -4 -4 -2 -1 4 7 13 57 6 57 -7z m0 -31 c0 -4 -6
-8 -14 -8 -8 0 -17 4 -20 8 -2 4 4 8 15 8 10 0 19 -4 19 -8z m6436 -52 c-2 -6
-5 -3 -5 7 -1 13 -6 17 -18 13 -10 -3 -31 -7 -48 -10 -21 -4 -19 -2 9 7 22 8
42 20 44 27 3 9 8 6 14 -10 5 -13 7 -28 4 -34z m-4252 17 c9 -34 -16 -63 -42
-47 -9 6 -18 21 -20 33 -3 19 -8 22 -28 17 -36 -9 -29 2 9 13 57 17 74 13 81
-16z m-2212 3 c10 0 14 -4 10 -8 -8 -8 -82 9 -82 19 0 3 12 2 28 -2 15 -5 35
-8 44 -9z m-22 -30 c0 -2 -9 -6 -20 -9 -11 -3 -18 -1 -14 4 5 9 34 13 34 5z
m6481 -33 c12 -16 12 -17 -2 -5 -20 15 -49 6 -49 -15 0 -11 7 -14 25 -11 13 3
22 1 19 -3 -3 -5 -14 -9 -25 -9 -28 0 -37 30 -14 46 24 18 30 18 46 -3z
m-6471 -3 c6 9 10 10 10 3 0 -18 -17 -25 -41 -18 -17 6 -19 9 -8 16 8 5 17 3
21 -4 6 -9 10 -8 18 3z m2208 -46 c-4 -22 -59 -39 -70 -21 -16 25 -9 47 15 46
16 -1 18 -2 5 -6 -22 -5 -24 -33 -3 -33 8 0 15 6 15 13 0 9 3 8 9 -2 12 -18
25 4 16 27 -5 13 -3 14 5 6 7 -7 10 -20 8 -30z m-2243 6 c13 -6 15 -9 5 -9 -8
0 -22 4 -30 9 -18 12 -2 12 25 0z m6511 -15 c-11 -9 -16 -20 -12 -31 6 -15 8
-15 34 1 l27 16 -24 -21 c-18 -16 -27 -18 -37 -9 -19 16 -17 36 4 48 25 15 30
13 8 -4z m-6502 -23 c3 -5 -8 -6 -25 -4 -16 2 -29 6 -29 8 0 8 49 4 54 -4z
m2250 -28 c3 -9 6 -21 5 -27 0 -7 -4 -2 -9 11 -10 23 -30 30 -30 10 0 -6 -3
-9 -6 -5 -9 8 5 27 21 27 7 0 16 -7 19 -16z m-2254 -4 c0 8 3 11 6 7 3 -3 3
-10 0 -16 -8 -12 -36 -3 -36 11 0 6 6 5 15 -2 12 -10 15 -10 15 0z m2206 -26
c8 3 14 1 14 -5 0 -20 -35 -4 -36 16 -1 17 0 17 3 2 3 -11 10 -16 19 -13z
m4369 26 c3 -6 -1 -7 -9 -4 -10 4 -16 1 -16 -7 0 -7 -3 -10 -6 -6 -7 7 4 27
16 27 5 0 12 -4 15 -10z m-6660 -34 c-16 -12 -17 -16 -6 -30 7 -9 26 -16 42
-16 23 0 29 5 29 21 0 16 -5 20 -19 16 -14 -3 -18 -1 -14 9 8 23 45 -3 41 -29
-3 -24 -26 -32 -63 -23 -38 10 -44 66 -7 66 13 0 12 -3 -3 -14z m6636 -19
c-10 -9 -11 -8 -5 6 3 10 9 15 12 12 3 -3 0 -11 -7 -18z m-2137 -9 c8 -13 7
-21 -1 -29 -9 -9 -11 -7 -6 9 7 27 -19 39 -53 24 -28 -13 -31 -36 -6 -52 10
-7 11 -10 3 -7 -8 2 -19 11 -25 21 -9 14 -6 21 13 37 28 23 59 22 75 -3z
m-2148 -6 c1 -7 0 -8 -3 -2 -9 19 -23 10 -23 -14 0 -30 -17 -43 -33 -26 -9 10
-9 11 1 6 7 -4 14 -1 17 8 3 9 7 23 10 32 6 17 27 15 31 -4z m4334 -22 c-14
-11 -29 -20 -35 -20 -5 0 4 9 20 20 38 25 48 25 15 0z m66 -54 c-23 -36 -21
-39 19 -33 47 8 44 -4 -7 -32 -39 -21 -41 -21 -18 -2 l25 21 -29 0 c-28 0 -28
0 -12 25 19 29 15 31 -19 9 -14 -9 -25 -14 -25 -10 0 8 74 55 79 50 2 -2 -4
-15 -13 -28z m-6756 4 c0 -5 -8 -10 -17 -10 -15 0 -16 2 -3 10 19 12 20 12 20
0z m2376 -5 c4 -8 1 -22 -6 -30 -14 -17 -30 -20 -30 -5 0 6 5 9 12 8 6 -2 14
5 16 15 3 15 -2 18 -25 15 -21 -2 -28 -8 -27 -25 0 -12 -3 -20 -8 -17 -13 8
-9 42 5 47 25 11 58 6 63 -8z m-2333 -12 c-7 -2 -19 -2 -25 0 -7 3 -2 5 12 5
14 0 19 -2 13 -5z m4457 -14 c0 -12 -44 -19 -55 -8 -7 7 -4 8 8 4 9 -4 17 -3
17 2 0 5 7 10 15 10 8 0 15 -4 15 -8z m7643 -42 c6 3 7 1 3 -6 -8 -12 -57 11
-79 38 -7 8 6 3 27 -12 22 -14 44 -23 49 -20z m-12113 23 c11 -7 6 -8 -17 -4
-26 5 -33 3 -33 -10 0 -8 11 -18 25 -22 14 -4 24 -8 22 -11 -11 -10 -57 11
-57 26 0 31 29 41 60 21z m4497 -30 c3 -10 2 -11 -4 -4 -4 6 -15 14 -23 17
-11 5 -9 6 4 4 11 -1 21 -9 23 -17z m-2167 0 c-34 -11 -60 -11 -35 0 11 5 29
8 40 8 16 0 15 -2 -5 -8z m4460 -28 c0 -25 -38 -46 -56 -31 -20 16 -18 39 4
39 13 0 14 -2 3 -9 -7 -5 -11 -14 -7 -20 11 -17 48 10 42 32 -2 9 0 15 5 11 5
-3 9 -13 9 -22z m5283 14 c21 -16 22 -30 2 -46 -13 -10 -18 -11 -28 -1 -9 10
-8 11 4 6 25 -10 35 16 13 32 -16 12 -20 11 -31 -4 -7 -9 -13 -12 -13 -7 0 11
21 34 30 34 3 0 13 -7 23 -14z m-12097 -26 c8 0 14 -8 14 -17 0 -14 -2 -15 -9
-4 -5 7 -14 10 -20 7 -6 -4 -11 -2 -11 3 0 6 -4 11 -10 11 -5 0 -10 -7 -10
-17 0 -9 -3 -14 -6 -10 -12 12 6 39 22 33 9 -3 22 -6 30 -6z m2394 2 c0 -5
-13 -7 -30 -4 -25 4 -30 1 -30 -17 0 -23 28 -29 47 -10 7 7 13 7 17 1 3 -5
-15 -15 -40 -21 -50 -13 -75 -3 -73 28 0 11 3 9 9 -6 12 -30 30 -29 30 0 0 13
3 27 7 30 9 10 63 9 63 -1z m2144 -8 c4 -9 4 -19 1 -22 -3 -3 -5 0 -5 7 0 9
-10 12 -30 9 -36 -5 -39 -1 -7 12 31 12 34 12 41 -6z m2305 -28 c10 -12 8 -13
-8 -9 -12 3 -27 1 -34 -3 -7 -5 -4 -1 6 9 23 21 22 20 36 3z m5227 -17 c4 -8
1 -8 -14 0 -12 6 -24 16 -28 22 -4 8 -1 8 14 0 12 -6 24 -16 28 -22z m-12069
5 c-3 -3 -12 -4 -19 -1 -8 3 -5 6 6 6 11 1 17 -2 13 -5z m4525 -17 c-16 -7
-22 -17 -19 -29 3 -10 1 -16 -4 -12 -22 13 1 55 31 53 9 0 7 -4 -8 -12z m7503
3 c3 -6 -1 -7 -9 -4 -18 7 -21 14 -7 14 6 0 13 -4 16 -10z m-12122 -19 c-7
-27 14 -35 27 -11 12 23 52 24 56 2 1 -7 0 -8 -3 -2 -8 17 -37 11 -51 -10 -14
-23 -42 -17 -42 9 0 15 8 31 16 31 1 0 0 -8 -3 -19z m4649 -13 c-9 -9 -15 -9
-24 1 -11 10 -10 11 5 6 10 -5 17 -2 17 6 0 7 3 9 7 6 4 -4 1 -13 -5 -19z
m2326 -11 c-2 -11 -10 -23 -18 -25 -13 -5 -13 -3 -2 11 20 23 6 40 -21 26 -21
-9 -21 -9 -4 5 24 19 49 9 45 -17z m5137 -5 c-6 -6 -35 18 -35 29 0 5 9 1 20
-8 11 -9 17 -19 15 -21z m26 5 c-10 -9 -11 -8 -5 6 3 10 9 15 12 12 3 -3 0
-11 -7 -18z m-71 -13 c0 -8 6 -14 14 -14 8 0 18 -4 21 -10 3 -6 -1 -7 -9 -4
-9 3 -23 3 -32 0 -15 -6 -15 -8 2 -28 l19 -21 -33 19 c-50 28 -54 38 -32 62
21 22 50 20 50 -4z m-9553 -14 c3 -11 13 -21 22 -21 19 -2 -35 -16 -66 -18
-26 -1 -43 37 -22 50 26 16 61 10 66 -11z m2160 -10 c3 -10 2 -11 -4 -4 -4 6
-15 14 -23 17 -11 5 -9 6 4 4 11 -1 21 -9 23 -17z m2328 4 c-11 -8 -28 -21
-37 -29 -10 -8 -18 -12 -18 -8 0 10 53 52 65 52 6 0 1 -6 -10 -15z m-6975 -44
c0 -5 -7 -7 -15 -4 -9 4 -15 0 -15 -9 0 -8 6 -18 13 -20 9 -4 9 -6 0 -6 -16
-1 -26 17 -19 34 6 17 36 21 36 5z m7005 -14 c0 -26 -30 -45 -46 -29 -9 9 -7
11 9 6 15 -3 24 0 28 11 9 24 -4 32 -26 18 -11 -7 -20 -8 -20 -3 0 5 6 12 13
14 22 10 42 2 42 -17z m-6983 -18 c-8 -8 -9 -4 -5 13 4 13 8 18 11 10 2 -7 -1
-18 -6 -23z m2478 7 c16 -19 6 -45 -17 -45 -15 0 -15 2 3 14 24 19 8 38 -25
29 -17 -4 -22 -11 -18 -29 2 -13 0 -21 -4 -18 -15 9 -10 43 9 53 24 14 38 13
52 -4z m2175 -14 c4 -12 12 -18 21 -14 7 3 14 3 14 0 0 -3 -20 -12 -45 -20
-43 -15 -44 -15 -51 5 -4 15 -1 26 12 35 25 18 42 16 49 -6z m7323 -7 c22 -15
22 -17 7 -34 -14 -15 -21 -17 -41 -8 -13 6 -22 13 -20 15 2 3 13 0 25 -6 30
-17 40 8 11 31 -27 22 -13 24 18 2z m-12016 -20 c16 -3 25 -10 22 -16 -3 -5
-11 -4 -20 3 -7 6 -19 9 -26 6 -7 -2 -19 2 -27 10 -12 13 -11 15 5 10 10 -4
31 -9 46 -13z m2564 -21 c-11 -11 -96 -31 -96 -23 0 5 21 12 48 18 26 5 49 10
51 11 2 0 1 -2 -3 -6z m-2561 -19 c8 3 15 1 15 -4 0 -6 -6 -10 -14 -10 -23 0
-46 11 -46 22 0 6 6 5 15 -2 8 -7 22 -10 30 -6z m4699 -2 c3 -5 -8 -6 -25 -4
-16 2 -29 6 -29 8 0 8 49 4 54 -4z m7229 -7 c-3 -9 -8 -14 -10 -11 -3 3 -2 9
2 15 9 16 15 13 8 -4z m47 0 c7 -9 10 -18 6 -22 -3 -3 -6 -1 -6 6 0 7 -6 11
-13 8 -8 -3 -14 1 -14 9 0 18 11 18 27 -1z m-7275 -25 c-3 -5 -12 -10 -18 -10
-7 0 -6 4 3 10 19 12 23 12 15 0z m7243 -48 c-8 -4 -78 36 -78 43 0 3 19 -6
43 -18 24 -12 40 -23 35 -25z m23 30 c-7 -2 -18 1 -23 6 -8 8 -4 9 13 5 13 -4
18 -8 10 -11z m-9375 -36 c8 -32 -2 -46 -30 -46 -12 0 -27 -5 -32 -10 -14 -14
-44 -2 -44 18 0 13 2 13 13 -3 16 -21 37 -12 37 16 0 25 -25 35 -45 19 -10 -8
-15 -9 -15 -2 0 12 50 30 87 31 16 1 24 -6 29 -23z m2134 18 c-37 -8 -88 -9
-84 -2 3 4 26 7 52 7 26 -1 40 -3 32 -5z m-4770 -14 c13 -8 13 -10 -2 -10 -9
0 -20 5 -23 10 -8 13 5 13 25 0z m11953 -14 c9 -7 17 -17 17 -21 0 -4 -6 -2
-13 4 -8 6 -17 8 -20 4 -4 -3 -7 -1 -7 6 0 8 -6 11 -16 7 -8 -3 -12 -2 -9 4 8
14 26 12 48 -4z m-7260 -21 c-3 -9 -8 -14 -10 -11 -3 3 -2 9 2 15 9 16 15 13
8 -4z m52 5 c3 -6 -1 -7 -9 -4 -18 7 -21 14 -7 14 6 0 13 -4 16 -10z m-4760
-7 c-11 -3 -23 -10 -27 -17 -5 -7 -8 -7 -8 0 0 16 11 24 34 23 20 -1 20 -1 1
-6z m27 -35 c-8 -8 -9 -4 -5 13 4 13 8 18 11 10 2 -7 -1 -18 -6 -23z m11862
26 c18 -7 21 -39 5 -49 -7 -5 -4 -14 8 -28 l18 -20 -33 19 c-51 29 -58 41 -37
64 21 23 18 22 39 14z m77 -9 c11 6 11 5 2 -5 -12 -14 -33 -6 -33 13 0 8 3 7
9 -2 5 -8 14 -10 22 -6z m-7231 -5 c0 -5 -8 -10 -17 -10 -15 0 -16 2 -3 10 19
12 20 12 20 0z m-4733 -16 c-3 -3 -12 -4 -19 -1 -8 3 -5 6 6 6 11 1 17 -2 13
-5z m-26 -49 c27 -9 19 -16 -9 -8 -15 3 -22 13 -21 27 1 16 2 17 6 4 2 -9 13
-20 24 -23z m2654 5 c0 -19 -6 -26 -24 -28 -13 -2 -27 0 -32 5 -5 5 3 9 18 8
18 0 29 6 31 18 4 20 -27 24 -46 5 -7 -7 -12 -8 -12 -2 0 18 13 25 40 22 19
-2 25 -9 25 -28z m2165 -29 c0 -30 -26 -49 -43 -32 -6 6 -2 9 9 8 13 -1 20 6
22 20 3 20 -1 22 -32 21 -20 -1 -39 2 -43 5 -3 4 15 7 40 7 45 0 47 -1 47 -29z
m-4856 -5 c-3 -9 5 -21 23 -31 26 -15 27 -15 3 -9 -14 3 -29 10 -34 14 -8 8
-2 40 8 40 3 0 3 -6 0 -14z m11916 -33 c0 -2 -13 4 -30 14 -16 9 -30 21 -30
25 0 5 14 -1 30 -14 17 -12 30 -23 30 -25z m-9230 7 c-34 -11 -60 -11 -35 0
11 5 29 8 40 8 16 0 15 -2 -5 -8z m-2663 -51 c4 -20 -13 -43 -26 -35 -6 4 -10
15 -10 24 1 15 2 15 6 -1 5 -19 23 -14 23 7 0 21 -39 27 -50 8 -5 -10 -10 -12
-10 -6 -1 33 62 36 67 3z m4768 21 c4 -6 1 -9 -7 -8 -7 2 -13 -4 -13 -12 0 -8
5 -15 12 -15 6 0 15 -3 19 -7 4 -5 -2 -8 -13 -8 -23 0 -36 22 -27 45 7 17 20
20 29 5z m7079 -22 c6 -4 7 -10 3 -15 -10 -9 -27 16 -26 37 1 13 1 13 6 0 3
-8 11 -18 17 -22z m37 -11 c-10 -9 -11 -8 -5 6 3 10 9 15 12 12 3 -3 0 -11 -7
-18z m-9178 -9 c8 -29 -9 -48 -42 -47 -22 2 -23 2 -4 6 31 6 50 31 29 39 -9 3
-26 4 -38 1 -11 -3 -17 -2 -12 3 8 7 28 14 55 19 4 0 9 -9 12 -21z m9136 -49
c-12 -24 -31 -24 -52 -1 -13 14 -14 21 -5 30 8 8 8 15 -3 28 -8 10 5 5 28 -10
36 -24 41 -31 32 -47z m-11913 19 c-1 -28 39 -39 47 -13 4 12 5 11 3 -2 -2
-24 -54 -31 -62 -9 -6 15 1 46 9 46 2 0 3 -10 3 -22z m4873 -20 c-1 -16 -3
-18 -6 -6 -2 9 -16 19 -31 21 -24 4 -24 4 6 6 27 1 32 -2 31 -21z m-34 -38 c4
-6 1 -9 -7 -8 -7 2 -13 -3 -13 -11 0 -23 43 -24 48 -1 4 17 4 16 3 -2 -1 -17
-8 -24 -27 -26 -30 -4 -46 22 -28 44 14 17 16 17 24 4z m6992 -40 c14 -11 22
-20 17 -20 -12 1 -61 39 -51 40 5 0 20 -9 34 -20z m-27 -18 c0 -4 -9 -8 -19
-8 -11 0 -17 4 -15 8 3 4 12 8 20 8 8 0 14 -4 14 -8z m-6942 -19 c-10 -2 -28
-2 -40 0 -13 2 -5 4 17 4 22 1 32 -1 23 -4z"/>
<path d="M2827 1243 c-12 -12 -7 -41 7 -46 19 -8 38 16 30 37 -6 16 -25 21
-37 9z"/>
<path d="M12466 681 c-16 -17 -16 -19 -1 -25 20 -7 35 0 35 19 0 23 -16 26
-34 6z"/>
<path d="M2894 669 c-10 -17 12 -32 35 -24 29 9 27 35 -3 35 -14 0 -28 -5 -32
-11z"/>
<path d="M5103 583 c-23 -9 -15 -35 10 -31 12 2 22 9 22 17 0 16 -14 22 -32
14z"/>
<path d="M2998 435 c-12 -13 5 -45 24 -45 14 0 19 6 16 22 -3 22 -27 35 -40
23z"/>
<path d="M12250 365 c-12 -14 -11 -18 1 -26 20 -12 34 -6 34 16 0 24 -19 30
-35 10z"/>
<path d="M12147 154 c-9 -10 12 -34 30 -34 19 0 12 34 -8 38 -8 1 -18 0 -22
-4z"/>
</g>
</svg>
