<svg xmlns="http://www.w3.org/2000/svg" width="35" height="35" fill="none" viewBox="0 0 35 35"><path fill="#fff" d="M31.4319 5.83333C31.2994 5.81968 31.1658 5.81968 31.0333 5.83333H3.81105C3.63658 5.83602 3.46327 5.86218 3.29578 5.91111L17.3444 19.9014L31.4319 5.83333Z"/><path fill="#fff" d="M32.8708 7.18472L18.7152 21.2819C18.3509 21.6441 17.8581 21.8474 17.3444 21.8474C16.8307 21.8474 16.3379 21.6441 15.9736 21.2819L1.9444 7.29167C1.90127 7.45018 1.8784 7.61352 1.87634 7.77778V27.2222C1.87634 27.7379 2.0812 28.2325 2.44586 28.5972C2.81051 28.9618 3.30509 29.1667 3.82079 29.1667H31.043C31.5587 29.1667 32.0533 28.9618 32.4179 28.5972C32.7826 28.2325 32.9875 27.7379 32.9875 27.2222V7.77778C32.9797 7.57522 32.9404 7.37512 32.8708 7.18472V7.18472ZM5.15273 27.2222H3.80134V25.8319L10.8694 18.8222L12.2402 20.1931L5.15273 27.2222ZM31.0236 27.2222H29.6625L22.575 20.1931L23.9458 18.8222L31.0138 25.8319L31.0236 27.2222Z"/></svg>