<svg width="50" height="50" viewBox="0 0 50 50" fill="white" xmlns="http://www.w3.org/2000/svg">
<path d="M30.1788 25.5427C30.1788 22.8405 27.9702 20.6417 25.2556 20.6417C22.5414 20.6417 20.3329 22.8405 20.3329 25.5427C20.3329 28.2456 22.5414 30.444 25.2556 30.444C27.9702 30.444 30.1788 28.2456 30.1788 25.5427ZM37.4928 0.0300903H12.5071C5.62325 0.0300903 0.0228004 5.60619 0.0228004 12.4599V15.9232H18.3935C20.3319 14.5484 22.6994 13.7363 25.2556 13.7363C27.8118 13.7363 30.1796 14.5484 32.1182 15.9232H49.977V12.4599C49.977 5.60614 44.3766 0.0300903 37.4928 0.0300903ZM42.5488 11.8518C42.5488 12.6114 41.9248 13.2329 41.1616 13.2329H36.8756C36.1126 13.2329 35.4885 12.6114 35.4885 11.8518V7.58424C35.4885 6.82474 36.1125 6.20314 36.8756 6.20314H41.1616C41.9247 6.20314 42.5488 6.82464 42.5488 7.58424V11.8518V11.8518ZM37.1144 25.5427C37.1144 32.0534 31.7943 37.3493 25.2556 37.3493C18.7167 37.3493 13.3971 32.0534 13.3971 25.5427C13.3971 23.7503 13.8026 22.0504 14.5237 20.5268H0.0228004V37.5399C0.0228004 44.3942 5.62325 49.9698 12.5071 49.9698H37.4928C44.3766 49.9698 49.9771 44.3941 49.9771 37.5399V20.5268H35.9878C36.7089 22.0504 37.1144 23.7503 37.1144 25.5427Z" fill="white"/>
</svg>
