<svg xmlns="http://www.w3.org/2000/svg" width="35" height="35" fill="none" viewBox="0 0 35 35"><path fill="#fff" fill-rule="evenodd" d="M30.485 19.4425C30.485 14.6869 23.52 13.125 23.52 13.125C22.8113 13.125 21.8838 13.1206 19.6875 13.125V10.8456L21.8597 10.8741V6.74406H19.6875V8.93156H13.125V6.74406H10.9375V10.8741L13.2169 10.8456V13.125H9.13505C9.13505 13.125 2.18536 14.5184 2.18536 19.4228C2.18536 24.3294 0.120361 32.0644 0.120361 32.0644C0.120361 32.0644 1.73036 32.1694 1.73036 34.93H30.8963C30.8963 32.2875 32.7732 32.0534 32.7732 32.0534C32.7732 32.0534 30.485 24.1981 30.485 19.4425V19.4425ZM16.4522 32.9941C14.3608 32.9938 12.3551 32.1627 10.8764 30.6836C9.39766 29.2044 8.5671 27.1985 8.56739 25.107C8.56768 23.0155 9.3988 21.0098 10.8779 19.5312C12.357 18.0525 14.3629 17.2219 16.4544 17.2222C17.49 17.2223 18.5154 17.4264 19.4722 17.8229C20.4289 18.2193 21.2981 18.8003 22.0303 19.5327C22.7625 20.2651 23.3432 21.1345 23.7394 22.0913C24.1356 23.0481 24.3394 24.0736 24.3393 25.1092C24.3391 26.1448 24.135 27.1702 23.7386 28.127C23.3421 29.0837 22.7611 29.9529 22.0288 30.6851C21.2964 31.4173 20.427 31.998 19.4701 32.3942C18.5133 32.7904 17.4878 32.9942 16.4522 32.9941V32.9941Z" clip-rule="evenodd"/><path fill="#fff" fill-rule="evenodd" d="M2.78468 10.6728H5.63937C5.63937 10.6728 8.40874 11.0447 8.49405 8.88344H0.107178C0.107178 10.9069 2.78468 10.6728 2.78468 10.6728Z" clip-rule="evenodd"/><path fill="#fff" fill-rule="evenodd" d="M8.75002 5.01156C8.75002 4.26781 10.5438 4.375 11.2985 4.375H21.6103C22.3585 4.375 24.0953 4.48219 24.0953 5.22594V6.32625H32.7294C32.7294 6.30437 32.7338 6.34375 32.7338 6.32625C32.7338 -0.100625 20.1119 0.111562 15.6866 0.111562C11.2656 0.111562 0.059082 -0.0503128 0.059082 6.38094H8.75002C8.75439 6.335 8.75002 4.60469 8.75002 5.01156Z" clip-rule="evenodd"/><path fill="#fff" fill-rule="evenodd" d="M27.2147 10.6728H30.0212C30.0212 10.6728 32.6944 11.0928 32.7272 8.88344H24.36C24.465 10.8084 27.2147 10.6728 27.2147 10.6728V10.6728Z" clip-rule="evenodd"/><path fill="#fff" fill-rule="evenodd" d="M17.5 24.0625H21.875V26.1712H17.5V24.0625Z" clip-rule="evenodd"/><path fill="#fff" d="M16.3559 28.4025C18.1403 28.4025 19.5869 26.9413 19.5869 25.1387C19.5869 23.3362 18.1403 21.875 16.3559 21.875C14.5715 21.875 13.125 23.3362 13.125 25.1387C13.125 26.9413 14.5715 28.4025 16.3559 28.4025Z"/></svg>