<svg xmlns="http://www.w3.org/2000/svg" width="50" height="54" fill="#fff" viewBox="0 0 50 54"><path fill="#fff" d="M44.6429 0.75H5.35714C2.39955 0.75 0 3.26953 0 6.375V47.625C0 50.7305 2.39955 53.25 5.35714 53.25H44.6429C47.6004 53.25 50 50.7305 50 47.625V6.375C50 3.26953 47.6004 0.75 44.6429 0.75ZM39.1853 19.3594C39.2076 19.6875 39.2076 20.0273 39.2076 20.3555C39.2076 30.5156 31.8415 42.2227 18.3817 42.2227C14.2299 42.2227 10.3795 40.957 7.14286 38.7773C7.73437 38.8477 8.30357 38.8711 8.90625 38.8711C12.3326 38.8711 15.4799 37.6523 17.9911 35.5898C14.7768 35.5195 12.0759 33.3047 11.1496 30.2578C12.2768 30.4336 13.2924 30.4336 14.4531 30.1172C11.1049 29.4023 8.59375 26.3086 8.59375 22.5703V22.4766C9.56473 23.0508 10.7031 23.4023 11.8973 23.4492C10.8933 22.748 10.0703 21.7967 9.50164 20.6803C8.93299 19.5638 8.63642 18.3169 8.63839 17.0508C8.63839 15.6211 8.99554 14.3086 9.6317 13.1719C13.2366 17.8359 18.6496 20.8828 24.721 21.2109C23.683 15.9961 27.3996 11.7656 31.8638 11.7656C33.9732 11.7656 35.8705 12.6914 37.2098 14.1914C38.8616 13.8633 40.4464 13.2187 41.8527 12.3398C41.3058 14.1211 40.1563 15.6211 38.6384 16.5703C40.1116 16.4063 41.5402 15.9727 42.8571 15.375C41.8638 16.9102 40.6138 18.2695 39.1853 19.3594Z"/></svg>